HIERARCHY
ROOT pelvis
{
    OFFSET 0.0 95.19148254394531 0.0
    CHANNELS 6 Xposition Yposition Zposition Zrotation Yrotation Xrotation

    JOINT left_hip
    {
        OFFSET -5.771527290344238 -4.982383728027344 -1.9093519449234009
        CHANNELS 3 Zrotation Yrotation Xrotation

        JOINT left_knee
        {
            OFFSET -7.103979110717773 -40.338985443115234 0.22019660472869873
            CHANNELS 3 Zrotation Yrotation Xrotation

            JOINT left_ankle
            {
                OFFSET -2.209652900695801 -42.88735580444336 -1.4278790950775146
                CHANNELS 3 Zrotation Yrotation Xrotation

                JOINT left_foot
                {
                    OFFSET -2.708606719970703 -5.781490325927734 12.828104019165039
                    CHANNELS 3 Zrotation Yrotation Xrotation

                    End Site
                    {
                        OFFSET 0 0 0
                    }
                }
            }
        }
    }

    JOINT right_hip
    {
        OFFSET 6.294027805328369 -5.32916259765625 -0.9484848976135254
        CHANNELS 3 Zrotation Yrotation Xrotation

        JOINT right_knee
        {
            OFFSET 7.6956095695495605 -40.21920394897461 -0.6584453582763672
            CHANNELS 3 Zrotation Yrotation Xrotation

            JOINT right_ankle
            {
                OFFSET 2.3499412536621094 -41.51585388183594 -3.5995497703552246
                CHANNELS 3 Zrotation Yrotation Xrotation

                JOINT right_foot
                {
                    OFFSET 3.547027587890625 -5.861624240875244 13.503323554992676
                    CHANNELS 3 Zrotation Yrotation Xrotation

                    End Site
                    {
                        OFFSET 0 0 0
                    }
                }
            }
        }
    }

    JOINT spine1
    {
        OFFSET 0.6128633618354797 17.34874725341797 -1.8160736560821533
        CHANNELS 3 Zrotation Yrotation Xrotation

        JOINT spine2
        {
            OFFSET -1.1105153560638428 12.617042541503906 -0.1756659746170044
            CHANNELS 3 Zrotation Yrotation Xrotation

            JOINT spine3
            {
                OFFSET -0.40774300694465637 4.15679931640625 2.3552017211914062
                CHANNELS 3 Zrotation Yrotation Xrotation

                JOINT left_collar
                {
                    OFFSET -7.178503513336182 9.438064575195312 -3.8969972133636475
                    CHANNELS 3 Zrotation Yrotation Xrotation

                    JOINT left_shoulder
                    {
                        OFFSET -13.275848388671875 2.5396270751953125 0.4689955711364746
                        CHANNELS 3 Zrotation Yrotation Xrotation

                        JOINT left_elbow
                        {
                            OFFSET -2.7089405059814453 -22.42259979248047 2.35168194770813
                            CHANNELS 3 Zrotation Yrotation Xrotation

                            JOINT left_wrist
                            {
                                OFFSET -8.501354217529297 -26.479385375976562 5.79549503326416
                                CHANNELS 3 Zrotation Yrotation Xrotation

                                End Site
                                {
                                    OFFSET 0 0 0
                                }
                            }
                        }
                    }
                }

                JOINT right_collar
                {
                    OFFSET 8.087486267089844 9.013763427734375 -4.67528772354126
                    CHANNELS 3 Zrotation Yrotation Xrotation

                    JOINT right_shoulder
                    {
                        OFFSET 11.93578052520752 2.1886444091796875 0.2351360321044922
                        CHANNELS 3 Zrotation Yrotation Xrotation

                        JOINT right_elbow
                        {
                            OFFSET 2.9354610443115234 -22.293052673339844 -2.0824174880981445
                            CHANNELS 3 Zrotation Yrotation Xrotation

                            JOINT right_wrist
                            {
                                OFFSET 7.0724945068359375 -28.05664825439453 -3.098099708557129
                                CHANNELS 3 Zrotation Yrotation Xrotation

                                End Site
                                {
                                    OFFSET 0 0 0
                                }
                            }
                        }
                    }
                }

                JOINT neck
                {
                    OFFSET 0.5368854999542236 20.579696655273438 -5.176484107971191
                    CHANNELS 3 Zrotation Yrotation Xrotation

                    JOINT head
                    {
                        OFFSET -1.6342418193817139 11.277603149414062 6.629984378814697
                        CHANNELS 3 Zrotation Yrotation Xrotation

                        End Site
                        {
                            OFFSET 0 0 0
                        }
                    }
                }
            }
        }
    }

}

MOTION
Frames: 13
Frame Time: 0.050000
0.000000 95.191483 0.000000 0.000000 0.000000 0.000000 0.000000 0.000000 0.000000 0.000000 0.000000 0.000000 0.000000 0.000000 0.000000 0.000000 0.000000 0.000000 0.000000 0.000000 0.000000 0.000000 0.000000 0.000000 0.000000 0.000000 0.000000 0.000000 0.000000 0.000000 0.000000 0.000000 0.000000 0.000000 0.000000 0.000000 0.000000 0.000000 0.000000 0.000000 0.000000 0.000000 0.000000 0.000000 0.000000 0.000000 0.000000 0.000000 0.000000 0.000000 0.000000 0.000000 0.000000 0.000000 0.000000 0.000000 0.000000 0.000000 0.000000 0.000000 0.000000 0.000000 0.000000 0.000000 0.000000 0.000000 0.000000 0.000000 0.000000
-0.189764 94.675507 0.131624 0.000000 0.000000 -0.000000 1.198683 1.531824 1.591576 -1.699713 -1.637608 0.153806 0.178012 -2.085874 -2.373176 0.000000 0.000000 -0.000000 -0.158192 -0.170572 0.035287 -1.860853 -1.829817 -2.300977 -2.773322 -1.604817 -3.239356 0.000000 0.000000 -0.000000 -6.279027 6.647414 -1.114025 12.016090 -4.340529 2.043035 0.000000 0.000000 -0.000000 0.040228 2.827436 -0.567795 -4.758698 -1.456818 -0.647027 3.846734 3.623855 0.721537 0.000000 0.000000 -0.000000 -1.699226 -0.074872 -1.712784 0.349079 1.410851 4.996690 3.943724 6.320894 -7.609319 0.000000 0.000000 -0.000000 1.605521 -0.770410 -1.268507 0.000000 0.000000 -0.000000
-0.393444 94.734055 0.123368 0.000000 0.000000 -0.000000 1.029209 1.277953 1.204489 -1.552365 -1.511294 0.825075 -0.745042 -2.418627 -2.208424 0.000000 0.000000 -0.000000 -0.313766 -0.229003 -0.488166 -1.670751 -1.628471 -1.209562 -7.917097 -1.845478 -4.299587 0.000000 0.000000 -0.000000 -6.565409 6.928937 -1.025180 13.648785 -5.206566 1.761915 0.000000 0.000000 -0.000000 -0.233269 4.188991 -0.543983 -6.723659 -1.610238 -0.194759 3.923408 3.331144 0.198357 0.000000 0.000000 -0.000000 -1.555892 1.044365 -1.361585 -0.319911 1.598015 5.266219 3.007451 5.605287 -8.315786 0.000000 0.000000 -0.000000 4.068328 -2.154304 -2.026738 0.000000 0.000000 -0.000000
-0.683880 94.847450 0.076153 0.000000 0.000000 -0.000000 0.664521 0.746663 0.396704 -1.233980 -1.218641 1.970525 1.522716 -2.352137 -2.708226 0.000000 0.000000 -0.000000 -0.665754 -0.453886 -1.169866 -1.344444 -1.281867 0.514820 -12.851495 -1.579365 -5.677115 0.000000 0.000000 -0.000000 -6.852619 7.169122 -0.742491 15.588474 -6.252722 1.412589 0.000000 0.000000 -0.000000 -0.447758 6.185448 -0.683063 -9.539954 -1.970412 0.985896 3.957398 2.530565 -1.101132 0.000000 0.000000 -0.000000 -1.176837 3.018636 -0.605937 -1.455378 1.813336 5.676284 1.307779 4.312564 -9.374195 0.000000 0.000000 -0.000000 8.082300 -4.492604 -3.181230 0.000000 0.000000 -0.000000
-1.138749 94.987457 -0.073661 0.000000 0.000000 -0.000000 -0.089039 -0.253879 -0.947391 -0.588477 -0.550520 3.702340 6.294379 -1.965400 -3.600649 0.000000 0.000000 -0.000000 -1.364257 -0.927432 -2.297417 -0.524940 -0.311832 3.253089 -20.945065 -1.057110 -7.698665 0.000000 0.000000 -0.000000 -6.935566 7.161589 -0.303490 18.363282 -7.926372 0.756717 0.000000 0.000000 -0.000000 -0.611953 9.890612 -1.143479 -14.183550 -2.519474 3.225486 3.609919 0.763196 -3.319754 0.000000 0.000000 -0.000000 -0.244712 7.063373 1.138399 -3.959211 1.798757 5.847271 -1.987233 1.781768 -11.224483 0.000000 0.000000 -0.000000 14.434471 -8.397609 -5.492679 0.000000 0.000000 -0.000000
-1.880722 95.105827 -0.420978 0.000000 0.000000 -0.000000 -1.418072 -1.838600 -2.782144 0.380035 0.589403 5.935205 13.286155 -1.426107 -4.806000 0.000000 0.000000 -0.000000 -2.512797 -1.718152 -3.885073 0.985231 1.683420 6.822163 -35.037290 -0.737456 -10.360840 0.000000 0.000000 -0.000000 -6.645115 6.728774 0.337338 22.295199 -10.512798 -0.298109 0.000000 0.000000 -0.000000 -0.758530 15.789853 -1.923678 -20.782091 -3.226005 6.113350 2.313538 -2.029636 -5.537600 0.000000 0.000000 -0.000000 1.480521 14.131826 4.432892 -8.603404 1.073728 5.083838 -6.960706 -1.951717 -13.782852 0.000000 0.000000 -0.000000 21.987726 -13.599795 -9.348683 0.000000 0.000000 -0.000000
-3.045139 95.133560 -1.032536 0.000000 0.000000 -0.000000 -3.295446 -3.836693 -4.652696 1.613726 2.214057 7.937332 18.948545 -1.053524 -5.589215 0.000000 0.000000 -0.000000 -4.123501 -2.883755 -5.535506 2.906677 4.530772 10.192659 -53.876939 -1.014057 -13.399297 0.000000 0.000000 -0.000000 -6.058948 5.919938 1.422959 27.046901 -13.766591 -1.921000 0.000000 0.000000 -0.000000 -0.950860 23.388142 -2.825093 -28.267191 -3.729322 8.933233 -0.054312 -5.431454 -6.988644 0.000000 0.000000 -0.000000 3.706101 23.495966 9.116810 -14.800870 -0.097941 2.619902 -13.147895 -6.444895 -16.650701 0.000000 0.000000 -0.000000 28.262635 -18.751690 -13.960991 0.000000 0.000000 -0.000000
-4.652849 95.026222 -1.925240 0.000000 0.000000 -0.000000 -5.606282 -6.074696 -6.332597 2.926823 4.039168 9.152489 21.475579 -0.773746 -5.256501 0.000000 0.000000 -0.000000 -6.262777 -4.522731 -6.991833 4.929950 7.883953 12.789855 -71.841763 -1.479090 -16.390753 0.000000 0.000000 -0.000000 -5.075003 4.619682 3.257619 32.324115 -17.447301 -4.275820 0.000000 0.000000 -0.000000 -1.469825 32.426951 -3.492565 -35.879556 -3.581827 11.984711 -3.188764 -9.342550 -8.366232 0.000000 0.000000 -0.000000 6.099838 33.817706 14.943380 -21.489267 -0.912676 -1.747735 -20.228468 -11.310161 -19.612138 0.000000 0.000000 -0.000000 33.053432 -23.550734 -18.719968 0.000000 0.000000 -0.000000
-6.666734 94.791946 -3.123232 0.000000 0.000000 -0.000000 -8.190640 -8.396613 -7.611725 4.105183 5.553260 8.954082 19.725943 -0.378855 -3.068772 0.000000 0.000000 -0.000000 -8.854400 -6.566084 -8.225423 6.975472 11.535711 14.484584 -87.851859 -1.848039 -19.335178 0.000000 0.000000 -0.000000 -3.116365 2.375071 5.886579 37.396214 -21.215065 -7.790121 0.000000 0.000000 -0.000000 -2.666970 42.261221 -3.478755 -42.685084 -2.823829 16.127216 -6.944194 -13.708181 -10.219508 0.000000 0.000000 -0.000000 8.873232 43.826930 22.134432 -27.397294 -0.508690 -8.207729 -28.412453 -16.342634 -22.897518 0.000000 0.000000 -0.000000 36.469461 -27.927099 -23.708499 0.000000 0.000000 -0.000000
-8.967707 94.540428 -4.588217 0.000000 0.000000 -0.000000 -10.945451 -10.753883 -8.150094 5.279370 6.408093 6.438383 8.712033 -0.369303 2.028511 0.000000 0.000000 -0.000000 -11.399257 -8.570837 -9.230216 8.808848 14.867020 15.280181 -103.184466 -2.389402 -22.316511 0.000000 0.000000 -0.000000 0.418441 -1.064916 8.519809 40.054540 -24.041773 -12.964850 0.000000 0.000000 -0.000000 -4.473836 51.798519 -2.739311 -47.946176 -2.005450 21.399244 -10.726453 -17.679859 -11.864748 0.000000 0.000000 -0.000000 12.496277 52.566365 30.867546 -31.917145 1.326233 -17.205523 -37.088403 -20.559748 -26.562284 0.000000 0.000000 -0.000000 37.651930 -31.024628 -29.219832 0.000000 0.000000 -0.000000
-11.304652 94.444221 -6.166349 0.000000 0.000000 -0.000000 -13.588967 -13.034535 -7.232942 6.414709 6.149608 1.076682 -13.861395 -1.144064 11.658128 0.000000 0.000000 -0.000000 -13.955437 -10.542646 -10.202473 10.532554 17.849060 15.315372 -116.104250 -3.801152 -24.872293 0.000000 0.000000 -0.000000 4.976661 -5.043533 10.237780 39.898560 -25.434912 -18.991020 0.000000 0.000000 -0.000000 -7.361748 61.306482 -0.860662 -52.207266 -1.200026 27.445193 -14.060649 -20.849853 -12.268159 0.000000 0.000000 -0.000000 18.378088 59.779530 41.669058 -35.736492 4.356706 -31.456871 -44.778221 -23.673015 -29.199973 0.000000 0.000000 -0.000000 36.790071 -32.659019 -35.287827 0.000000 0.000000 -0.000000
-13.310684 94.652267 -7.629551 0.000000 0.000000 -0.000000 -15.349547 -14.751717 -4.582129 7.044566 5.093964 -4.822323 -44.202358 -5.236946 28.788513 0.000000 0.000000 -0.000000 -16.005886 -11.986406 -11.227558 12.217978 20.106577 14.470877 -124.581695 -6.944954 -26.213741 0.000000 0.000000 -0.000000 9.145002 -8.493766 11.203065 37.695791 -25.295462 -25.328553 0.000000 0.000000 -0.000000 -12.170595 70.580085 2.997059 -55.748922 -0.990265 33.852118 -14.993969 -21.945706 -10.637846 0.000000 0.000000 -0.000000 34.199093 64.657238 56.411591 -38.153072 7.189970 -61.127006 -49.130278 -25.406451 -29.196998 0.000000 0.000000 -0.000000 35.136484 -33.177061 -40.605775 0.000000 0.000000 -0.000000
-14.669662 95.165909 -8.842422 0.000000 0.000000 -0.000000 -16.383389 -15.996165 -1.375060 8.923567 6.860080 -6.694864 -60.213796 -13.295662 50.590423 0.000000 0.000000 -0.000000 -17.195046 -12.352368 -12.891096 12.932879 21.237830 14.864752 -129.106165 -7.874635 -26.806915 0.000000 0.000000 -0.000000 12.585131 -11.296603 11.502042 34.471798 -23.740561 -30.134225 0.000000 0.000000 -0.000000 -17.119323 77.729266 7.235625 -57.113105 -1.811265 40.012101 -13.532319 -20.471743 -9.192010 0.000000 0.000000 -0.000000 61.555464 66.525396 70.810783 -38.516799 7.593154 -103.393120 -52.134463 -27.161664 -27.934318 0.000000 0.000000 -0.000000 34.435248 -34.136606 -44.569906 0.000000 0.000000 -0.000000
